<mxfile host="app.diagrams.net" modified="2024-02-11T10:49:16.843Z" agent="Mozilla/5.0 (X11; Linux x86_64) AppleWebKit/537.36 (KHTML, like Gecko) Chrome/121.0.0.0 Safari/537.36" etag="G5V8RKpy0QKFSjPoEppB" version="23.1.1" type="device">
  <diagram name="Seite-1" id="lrw-ulC-TRr8vgth_S0W">
    <mxGraphModel dx="641" dy="374" grid="1" gridSize="10" guides="1" tooltips="1" connect="1" arrows="1" fold="1" page="1" pageScale="1" pageWidth="827" pageHeight="1169" math="0" shadow="0">
      <root>
        <mxCell id="0" />
        <mxCell id="1" parent="0" />
        <mxCell id="-88GP-nZOCmdIrbu0Acq-10" style="edgeStyle=orthogonalEdgeStyle;rounded=0;orthogonalLoop=1;jettySize=auto;html=1;exitX=1;exitY=0.5;exitDx=0;exitDy=0;entryX=0;entryY=0.5;entryDx=0;entryDy=0;" edge="1" parent="1" source="-88GP-nZOCmdIrbu0Acq-1" target="-88GP-nZOCmdIrbu0Acq-9">
          <mxGeometry relative="1" as="geometry" />
        </mxCell>
        <mxCell id="-88GP-nZOCmdIrbu0Acq-1" value="Producer 1" style="rounded=1;whiteSpace=wrap;html=1;fontStyle=1;fillColor=#dae8fc;strokeColor=#6c8ebf;fontSize=16;" vertex="1" parent="1">
          <mxGeometry x="140" y="110" width="100" height="40" as="geometry" />
        </mxCell>
        <mxCell id="-88GP-nZOCmdIrbu0Acq-11" style="edgeStyle=orthogonalEdgeStyle;rounded=0;orthogonalLoop=1;jettySize=auto;html=1;exitX=1;exitY=0.5;exitDx=0;exitDy=0;entryX=0;entryY=0.5;entryDx=0;entryDy=0;" edge="1" parent="1" source="-88GP-nZOCmdIrbu0Acq-2" target="-88GP-nZOCmdIrbu0Acq-9">
          <mxGeometry relative="1" as="geometry" />
        </mxCell>
        <mxCell id="-88GP-nZOCmdIrbu0Acq-2" value="Producer 2" style="rounded=1;whiteSpace=wrap;html=1;fontStyle=1;fillColor=#dae8fc;strokeColor=#6c8ebf;fontSize=16;" vertex="1" parent="1">
          <mxGeometry x="140" y="160" width="100" height="40" as="geometry" />
        </mxCell>
        <mxCell id="-88GP-nZOCmdIrbu0Acq-12" style="edgeStyle=orthogonalEdgeStyle;rounded=0;orthogonalLoop=1;jettySize=auto;html=1;exitX=1;exitY=0.5;exitDx=0;exitDy=0;entryX=0;entryY=0.5;entryDx=0;entryDy=0;" edge="1" parent="1" source="-88GP-nZOCmdIrbu0Acq-3" target="-88GP-nZOCmdIrbu0Acq-9">
          <mxGeometry relative="1" as="geometry" />
        </mxCell>
        <mxCell id="-88GP-nZOCmdIrbu0Acq-3" value="Producer 3" style="rounded=1;whiteSpace=wrap;html=1;fontStyle=1;fillColor=#dae8fc;strokeColor=#6c8ebf;fontSize=16;" vertex="1" parent="1">
          <mxGeometry x="140" y="210" width="100" height="40" as="geometry" />
        </mxCell>
        <mxCell id="-88GP-nZOCmdIrbu0Acq-13" style="edgeStyle=orthogonalEdgeStyle;rounded=0;orthogonalLoop=1;jettySize=auto;html=1;exitX=1;exitY=0.5;exitDx=0;exitDy=0;entryX=0;entryY=0.5;entryDx=0;entryDy=0;" edge="1" parent="1" source="-88GP-nZOCmdIrbu0Acq-4" target="-88GP-nZOCmdIrbu0Acq-9">
          <mxGeometry relative="1" as="geometry" />
        </mxCell>
        <mxCell id="-88GP-nZOCmdIrbu0Acq-4" value="Producer 4" style="rounded=1;whiteSpace=wrap;html=1;fontStyle=1;fillColor=#dae8fc;strokeColor=#6c8ebf;fontSize=16;" vertex="1" parent="1">
          <mxGeometry x="140" y="260" width="100" height="40" as="geometry" />
        </mxCell>
        <mxCell id="-88GP-nZOCmdIrbu0Acq-14" style="edgeStyle=orthogonalEdgeStyle;rounded=0;orthogonalLoop=1;jettySize=auto;html=1;exitX=1;exitY=0.5;exitDx=0;exitDy=0;entryX=0;entryY=0.5;entryDx=0;entryDy=0;" edge="1" parent="1" source="-88GP-nZOCmdIrbu0Acq-5" target="-88GP-nZOCmdIrbu0Acq-9">
          <mxGeometry relative="1" as="geometry" />
        </mxCell>
        <mxCell id="-88GP-nZOCmdIrbu0Acq-5" value="Producer 5" style="rounded=1;whiteSpace=wrap;html=1;fontStyle=1;fillColor=#dae8fc;strokeColor=#6c8ebf;fontSize=16;" vertex="1" parent="1">
          <mxGeometry x="140" y="310" width="100" height="40" as="geometry" />
        </mxCell>
        <mxCell id="-88GP-nZOCmdIrbu0Acq-6" value="Consumer 1" style="rounded=1;whiteSpace=wrap;html=1;fontStyle=1;fillColor=#d5e8d4;strokeColor=#82b366;fontSize=16;" vertex="1" parent="1">
          <mxGeometry x="540" y="160" width="100" height="40" as="geometry" />
        </mxCell>
        <mxCell id="-88GP-nZOCmdIrbu0Acq-7" value="Consumer 2" style="rounded=1;whiteSpace=wrap;html=1;fontStyle=1;fillColor=#d5e8d4;strokeColor=#82b366;fontSize=16;" vertex="1" parent="1">
          <mxGeometry x="540" y="210" width="100" height="40" as="geometry" />
        </mxCell>
        <mxCell id="-88GP-nZOCmdIrbu0Acq-8" value="Consumer 3" style="rounded=1;whiteSpace=wrap;html=1;fontStyle=1;fillColor=#d5e8d4;strokeColor=#82b366;fontSize=16;" vertex="1" parent="1">
          <mxGeometry x="540" y="260" width="100" height="40" as="geometry" />
        </mxCell>
        <mxCell id="-88GP-nZOCmdIrbu0Acq-15" style="edgeStyle=orthogonalEdgeStyle;rounded=0;orthogonalLoop=1;jettySize=auto;html=1;exitX=1;exitY=0.5;exitDx=0;exitDy=0;entryX=0;entryY=0.5;entryDx=0;entryDy=0;" edge="1" parent="1" source="-88GP-nZOCmdIrbu0Acq-9" target="-88GP-nZOCmdIrbu0Acq-6">
          <mxGeometry relative="1" as="geometry" />
        </mxCell>
        <mxCell id="-88GP-nZOCmdIrbu0Acq-16" style="edgeStyle=orthogonalEdgeStyle;rounded=0;orthogonalLoop=1;jettySize=auto;html=1;exitX=1;exitY=0.5;exitDx=0;exitDy=0;entryX=0;entryY=0.5;entryDx=0;entryDy=0;" edge="1" parent="1" source="-88GP-nZOCmdIrbu0Acq-9" target="-88GP-nZOCmdIrbu0Acq-7">
          <mxGeometry relative="1" as="geometry" />
        </mxCell>
        <mxCell id="-88GP-nZOCmdIrbu0Acq-17" style="edgeStyle=orthogonalEdgeStyle;rounded=0;orthogonalLoop=1;jettySize=auto;html=1;exitX=1;exitY=0.5;exitDx=0;exitDy=0;entryX=0;entryY=0.5;entryDx=0;entryDy=0;" edge="1" parent="1" source="-88GP-nZOCmdIrbu0Acq-9" target="-88GP-nZOCmdIrbu0Acq-8">
          <mxGeometry relative="1" as="geometry" />
        </mxCell>
        <mxCell id="-88GP-nZOCmdIrbu0Acq-9" value="Event Registry" style="rounded=1;whiteSpace=wrap;html=1;fontStyle=1;fontSize=18;fillColor=#e1d5e7;strokeColor=#9673a6;" vertex="1" parent="1">
          <mxGeometry x="354" y="200" width="120" height="60" as="geometry" />
        </mxCell>
      </root>
    </mxGraphModel>
  </diagram>
</mxfile>
